<mxfile host="app.diagrams.net" modified="2024-03-28T04:52:34.492Z" agent="Mozilla/5.0 (Macintosh; Intel Mac OS X 10_15_7) AppleWebKit/605.1.15 (KHTML, like Gecko) Version/17.3.1 Safari/605.1.15" etag="Hgg9oHewDLKWEoNhIVu-" version="24.1.0" type="github">
  <diagram id="C5RBs43oDa-KdzZeNtuy" name="Page-1">
    <mxGraphModel dx="1194" dy="675" grid="1" gridSize="10" guides="1" tooltips="1" connect="1" arrows="1" fold="1" page="1" pageScale="1" pageWidth="827" pageHeight="1169" math="0" shadow="0">
      <root>
        <mxCell id="WIyWlLk6GJQsqaUBKTNV-0" />
        <mxCell id="WIyWlLk6GJQsqaUBKTNV-1" parent="WIyWlLk6GJQsqaUBKTNV-0" />
        <mxCell id="z-chgZ_pZuk4-kf4tfoL-0" value="START" style="ellipse;whiteSpace=wrap;html=1;" vertex="1" parent="WIyWlLk6GJQsqaUBKTNV-1">
          <mxGeometry x="310" y="40" width="100" height="50" as="geometry" />
        </mxCell>
        <mxCell id="z-chgZ_pZuk4-kf4tfoL-1" value="" style="ellipse;whiteSpace=wrap;html=1;aspect=fixed;" vertex="1" parent="WIyWlLk6GJQsqaUBKTNV-1">
          <mxGeometry x="345" y="130" width="30" height="30" as="geometry" />
        </mxCell>
        <mxCell id="z-chgZ_pZuk4-kf4tfoL-2" value="Login" style="shape=parallelogram;perimeter=parallelogramPerimeter;whiteSpace=wrap;html=1;fixedSize=1;" vertex="1" parent="WIyWlLk6GJQsqaUBKTNV-1">
          <mxGeometry x="305" y="200" width="110" height="40" as="geometry" />
        </mxCell>
        <mxCell id="z-chgZ_pZuk4-kf4tfoL-3" value="" style="edgeStyle=none;orthogonalLoop=1;jettySize=auto;html=1;rounded=0;exitX=0.5;exitY=1;exitDx=0;exitDy=0;entryX=0.5;entryY=0;entryDx=0;entryDy=0;" edge="1" parent="WIyWlLk6GJQsqaUBKTNV-1" source="z-chgZ_pZuk4-kf4tfoL-0" target="z-chgZ_pZuk4-kf4tfoL-1">
          <mxGeometry width="100" relative="1" as="geometry">
            <mxPoint x="390" y="120" as="sourcePoint" />
            <mxPoint x="490" y="120" as="targetPoint" />
            <Array as="points" />
          </mxGeometry>
        </mxCell>
        <mxCell id="z-chgZ_pZuk4-kf4tfoL-4" value="" style="edgeStyle=none;orthogonalLoop=1;jettySize=auto;html=1;rounded=0;exitX=0.5;exitY=1;exitDx=0;exitDy=0;entryX=0.5;entryY=0;entryDx=0;entryDy=0;" edge="1" parent="WIyWlLk6GJQsqaUBKTNV-1" source="z-chgZ_pZuk4-kf4tfoL-1" target="z-chgZ_pZuk4-kf4tfoL-2">
          <mxGeometry width="100" relative="1" as="geometry">
            <mxPoint x="360" y="170" as="sourcePoint" />
            <mxPoint x="460" y="170" as="targetPoint" />
            <Array as="points" />
          </mxGeometry>
        </mxCell>
        <mxCell id="z-chgZ_pZuk4-kf4tfoL-5" value="user data" style="shape=cylinder3;whiteSpace=wrap;html=1;boundedLbl=1;backgroundOutline=1;size=15;" vertex="1" parent="WIyWlLk6GJQsqaUBKTNV-1">
          <mxGeometry x="330" y="280" width="60" height="80" as="geometry" />
        </mxCell>
        <mxCell id="z-chgZ_pZuk4-kf4tfoL-30" value="" style="edgeStyle=orthogonalEdgeStyle;rounded=0;orthogonalLoop=1;jettySize=auto;html=1;" edge="1" parent="WIyWlLk6GJQsqaUBKTNV-1" source="z-chgZ_pZuk4-kf4tfoL-6" target="z-chgZ_pZuk4-kf4tfoL-9">
          <mxGeometry relative="1" as="geometry" />
        </mxCell>
        <mxCell id="z-chgZ_pZuk4-kf4tfoL-6" value="is user admin?" style="rhombus;whiteSpace=wrap;html=1;" vertex="1" parent="WIyWlLk6GJQsqaUBKTNV-1">
          <mxGeometry x="320" y="400" width="80" height="80" as="geometry" />
        </mxCell>
        <mxCell id="z-chgZ_pZuk4-kf4tfoL-7" value="is user patron?" style="rhombus;whiteSpace=wrap;html=1;" vertex="1" parent="WIyWlLk6GJQsqaUBKTNV-1">
          <mxGeometry x="635" y="400" width="80" height="80" as="geometry" />
        </mxCell>
        <mxCell id="z-chgZ_pZuk4-kf4tfoL-8" value="deny access" style="rounded=0;whiteSpace=wrap;html=1;" vertex="1" parent="WIyWlLk6GJQsqaUBKTNV-1">
          <mxGeometry x="630" y="310" width="90" height="50" as="geometry" />
        </mxCell>
        <mxCell id="z-chgZ_pZuk4-kf4tfoL-9" value="Add books" style="shape=parallelogram;perimeter=parallelogramPerimeter;whiteSpace=wrap;html=1;fixedSize=1;" vertex="1" parent="WIyWlLk6GJQsqaUBKTNV-1">
          <mxGeometry x="305" y="520" width="110" height="40" as="geometry" />
        </mxCell>
        <mxCell id="z-chgZ_pZuk4-kf4tfoL-10" value="display&amp;nbsp;&lt;div&gt;borrowed&lt;/div&gt;" style="shape=parallelogram;perimeter=parallelogramPerimeter;whiteSpace=wrap;html=1;fixedSize=1;" vertex="1" parent="WIyWlLk6GJQsqaUBKTNV-1">
          <mxGeometry x="305" y="600" width="110" height="40" as="geometry" />
        </mxCell>
        <mxCell id="z-chgZ_pZuk4-kf4tfoL-11" value="retire old books/book condition&amp;nbsp;" style="shape=parallelogram;perimeter=parallelogramPerimeter;whiteSpace=wrap;html=1;fixedSize=1;" vertex="1" parent="WIyWlLk6GJQsqaUBKTNV-1">
          <mxGeometry x="305" y="690" width="110" height="40" as="geometry" />
        </mxCell>
        <mxCell id="z-chgZ_pZuk4-kf4tfoL-12" value="fine and reward management" style="shape=parallelogram;perimeter=parallelogramPerimeter;whiteSpace=wrap;html=1;fixedSize=1;" vertex="1" parent="WIyWlLk6GJQsqaUBKTNV-1">
          <mxGeometry x="305" y="780" width="110" height="40" as="geometry" />
        </mxCell>
        <mxCell id="z-chgZ_pZuk4-kf4tfoL-13" value="push&amp;nbsp;&lt;div&gt;notifications&lt;/div&gt;" style="shape=parallelogram;perimeter=parallelogramPerimeter;whiteSpace=wrap;html=1;fixedSize=1;" vertex="1" parent="WIyWlLk6GJQsqaUBKTNV-1">
          <mxGeometry x="305" y="870" width="110" height="40" as="geometry" />
        </mxCell>
        <mxCell id="z-chgZ_pZuk4-kf4tfoL-14" value="browse books" style="shape=parallelogram;perimeter=parallelogramPerimeter;whiteSpace=wrap;html=1;fixedSize=1;" vertex="1" parent="WIyWlLk6GJQsqaUBKTNV-1">
          <mxGeometry x="620" y="530" width="110" height="40" as="geometry" />
        </mxCell>
        <mxCell id="z-chgZ_pZuk4-kf4tfoL-36" value="" style="edgeStyle=orthogonalEdgeStyle;rounded=0;orthogonalLoop=1;jettySize=auto;html=1;" edge="1" parent="WIyWlLk6GJQsqaUBKTNV-1" source="z-chgZ_pZuk4-kf4tfoL-15" target="z-chgZ_pZuk4-kf4tfoL-35">
          <mxGeometry relative="1" as="geometry" />
        </mxCell>
        <mxCell id="z-chgZ_pZuk4-kf4tfoL-15" value="borrow/return &amp;nbsp;books" style="shape=parallelogram;perimeter=parallelogramPerimeter;whiteSpace=wrap;html=1;fixedSize=1;" vertex="1" parent="WIyWlLk6GJQsqaUBKTNV-1">
          <mxGeometry x="620" y="610" width="110" height="40" as="geometry" />
        </mxCell>
        <mxCell id="z-chgZ_pZuk4-kf4tfoL-17" value="" style="ellipse;whiteSpace=wrap;html=1;aspect=fixed;" vertex="1" parent="WIyWlLk6GJQsqaUBKTNV-1">
          <mxGeometry x="660" y="990" width="30" height="30" as="geometry" />
        </mxCell>
        <mxCell id="z-chgZ_pZuk4-kf4tfoL-18" value="STOP" style="ellipse;whiteSpace=wrap;html=1;" vertex="1" parent="WIyWlLk6GJQsqaUBKTNV-1">
          <mxGeometry x="625" y="1060" width="100" height="50" as="geometry" />
        </mxCell>
        <mxCell id="z-chgZ_pZuk4-kf4tfoL-19" value="" style="edgeStyle=none;orthogonalLoop=1;jettySize=auto;html=1;rounded=0;exitX=0.5;exitY=0;exitDx=0;exitDy=0;entryX=1;entryY=0.5;entryDx=0;entryDy=0;" edge="1" parent="WIyWlLk6GJQsqaUBKTNV-1" source="z-chgZ_pZuk4-kf4tfoL-8" target="z-chgZ_pZuk4-kf4tfoL-1">
          <mxGeometry width="100" relative="1" as="geometry">
            <mxPoint x="370" y="150" as="sourcePoint" />
            <mxPoint x="470" y="150" as="targetPoint" />
            <Array as="points">
              <mxPoint x="675" y="145" />
              <mxPoint x="520" y="145" />
            </Array>
          </mxGeometry>
        </mxCell>
        <mxCell id="z-chgZ_pZuk4-kf4tfoL-20" value="" style="edgeStyle=none;orthogonalLoop=1;jettySize=auto;html=1;rounded=0;exitX=0.5;exitY=1;exitDx=0;exitDy=0;entryX=0.5;entryY=0;entryDx=0;entryDy=0;entryPerimeter=0;" edge="1" parent="WIyWlLk6GJQsqaUBKTNV-1" source="z-chgZ_pZuk4-kf4tfoL-2" target="z-chgZ_pZuk4-kf4tfoL-5">
          <mxGeometry width="100" relative="1" as="geometry">
            <mxPoint x="370" y="260" as="sourcePoint" />
            <mxPoint x="470" y="260" as="targetPoint" />
            <Array as="points" />
          </mxGeometry>
        </mxCell>
        <mxCell id="z-chgZ_pZuk4-kf4tfoL-21" value="" style="edgeStyle=none;orthogonalLoop=1;jettySize=auto;html=1;rounded=0;exitX=0.5;exitY=1;exitDx=0;exitDy=0;exitPerimeter=0;entryX=0.5;entryY=0;entryDx=0;entryDy=0;" edge="1" parent="WIyWlLk6GJQsqaUBKTNV-1" source="z-chgZ_pZuk4-kf4tfoL-5" target="z-chgZ_pZuk4-kf4tfoL-6">
          <mxGeometry width="100" relative="1" as="geometry">
            <mxPoint x="380" y="280" as="sourcePoint" />
            <mxPoint x="480" y="280" as="targetPoint" />
            <Array as="points" />
          </mxGeometry>
        </mxCell>
        <mxCell id="z-chgZ_pZuk4-kf4tfoL-22" value="" style="edgeStyle=none;orthogonalLoop=1;jettySize=auto;html=1;rounded=0;exitX=1;exitY=0.5;exitDx=0;exitDy=0;entryX=0;entryY=0.5;entryDx=0;entryDy=0;" edge="1" parent="WIyWlLk6GJQsqaUBKTNV-1" source="z-chgZ_pZuk4-kf4tfoL-6" target="z-chgZ_pZuk4-kf4tfoL-7">
          <mxGeometry width="100" relative="1" as="geometry">
            <mxPoint x="360" y="420" as="sourcePoint" />
            <mxPoint x="460" y="420" as="targetPoint" />
            <Array as="points" />
          </mxGeometry>
        </mxCell>
        <mxCell id="z-chgZ_pZuk4-kf4tfoL-23" value="" style="edgeStyle=none;orthogonalLoop=1;jettySize=auto;html=1;rounded=0;exitX=0.5;exitY=1;exitDx=0;exitDy=0;entryX=0.5;entryY=0;entryDx=0;entryDy=0;" edge="1" parent="WIyWlLk6GJQsqaUBKTNV-1" source="z-chgZ_pZuk4-kf4tfoL-8" target="z-chgZ_pZuk4-kf4tfoL-7">
          <mxGeometry width="100" relative="1" as="geometry">
            <mxPoint x="540" y="380" as="sourcePoint" />
            <mxPoint x="640" y="380" as="targetPoint" />
            <Array as="points" />
          </mxGeometry>
        </mxCell>
        <mxCell id="z-chgZ_pZuk4-kf4tfoL-24" value="" style="edgeStyle=none;orthogonalLoop=1;jettySize=auto;html=1;rounded=0;exitX=0.5;exitY=1;exitDx=0;exitDy=0;entryX=0.5;entryY=0;entryDx=0;entryDy=0;" edge="1" parent="WIyWlLk6GJQsqaUBKTNV-1" source="z-chgZ_pZuk4-kf4tfoL-7" target="z-chgZ_pZuk4-kf4tfoL-14">
          <mxGeometry width="100" relative="1" as="geometry">
            <mxPoint x="560" y="490" as="sourcePoint" />
            <mxPoint x="660" y="490" as="targetPoint" />
            <Array as="points" />
          </mxGeometry>
        </mxCell>
        <mxCell id="z-chgZ_pZuk4-kf4tfoL-25" value="" style="edgeStyle=none;orthogonalLoop=1;jettySize=auto;html=1;rounded=0;exitX=0.5;exitY=1;exitDx=0;exitDy=0;entryX=0.5;entryY=0;entryDx=0;entryDy=0;" edge="1" parent="WIyWlLk6GJQsqaUBKTNV-1" source="z-chgZ_pZuk4-kf4tfoL-14" target="z-chgZ_pZuk4-kf4tfoL-15">
          <mxGeometry width="100" relative="1" as="geometry">
            <mxPoint x="560" y="570" as="sourcePoint" />
            <mxPoint x="660" y="570" as="targetPoint" />
            <Array as="points" />
          </mxGeometry>
        </mxCell>
        <mxCell id="z-chgZ_pZuk4-kf4tfoL-28" value="" style="edgeStyle=none;orthogonalLoop=1;jettySize=auto;html=1;rounded=0;exitX=0.5;exitY=1;exitDx=0;exitDy=0;entryX=0.5;entryY=0;entryDx=0;entryDy=0;" edge="1" parent="WIyWlLk6GJQsqaUBKTNV-1" source="z-chgZ_pZuk4-kf4tfoL-17" target="z-chgZ_pZuk4-kf4tfoL-18">
          <mxGeometry width="100" relative="1" as="geometry">
            <mxPoint x="550" y="1020" as="sourcePoint" />
            <mxPoint x="650" y="1020" as="targetPoint" />
            <Array as="points" />
          </mxGeometry>
        </mxCell>
        <mxCell id="z-chgZ_pZuk4-kf4tfoL-29" value="" style="edgeStyle=none;orthogonalLoop=1;jettySize=auto;html=1;rounded=0;exitX=0.5;exitY=1;exitDx=0;exitDy=0;entryX=0;entryY=0.5;entryDx=0;entryDy=0;" edge="1" parent="WIyWlLk6GJQsqaUBKTNV-1" source="z-chgZ_pZuk4-kf4tfoL-13" target="z-chgZ_pZuk4-kf4tfoL-17">
          <mxGeometry width="100" relative="1" as="geometry">
            <mxPoint x="310" y="950" as="sourcePoint" />
            <mxPoint x="410" y="950" as="targetPoint" />
            <Array as="points">
              <mxPoint x="360" y="1005" />
            </Array>
          </mxGeometry>
        </mxCell>
        <mxCell id="z-chgZ_pZuk4-kf4tfoL-31" value="" style="edgeStyle=none;orthogonalLoop=1;jettySize=auto;html=1;rounded=0;exitX=0.5;exitY=1;exitDx=0;exitDy=0;entryX=0.5;entryY=0;entryDx=0;entryDy=0;" edge="1" parent="WIyWlLk6GJQsqaUBKTNV-1" source="z-chgZ_pZuk4-kf4tfoL-9" target="z-chgZ_pZuk4-kf4tfoL-10">
          <mxGeometry width="100" relative="1" as="geometry">
            <mxPoint x="290" y="580" as="sourcePoint" />
            <mxPoint x="390" y="580" as="targetPoint" />
            <Array as="points" />
          </mxGeometry>
        </mxCell>
        <mxCell id="z-chgZ_pZuk4-kf4tfoL-32" value="" style="edgeStyle=none;orthogonalLoop=1;jettySize=auto;html=1;rounded=0;exitX=0.5;exitY=1;exitDx=0;exitDy=0;entryX=0.5;entryY=0;entryDx=0;entryDy=0;" edge="1" parent="WIyWlLk6GJQsqaUBKTNV-1" source="z-chgZ_pZuk4-kf4tfoL-10" target="z-chgZ_pZuk4-kf4tfoL-11">
          <mxGeometry width="100" relative="1" as="geometry">
            <mxPoint x="350" y="670" as="sourcePoint" />
            <mxPoint x="450" y="670" as="targetPoint" />
            <Array as="points" />
          </mxGeometry>
        </mxCell>
        <mxCell id="z-chgZ_pZuk4-kf4tfoL-33" value="" style="edgeStyle=none;orthogonalLoop=1;jettySize=auto;html=1;rounded=0;exitX=0.5;exitY=1;exitDx=0;exitDy=0;entryX=0.5;entryY=0;entryDx=0;entryDy=0;" edge="1" parent="WIyWlLk6GJQsqaUBKTNV-1" source="z-chgZ_pZuk4-kf4tfoL-11" target="z-chgZ_pZuk4-kf4tfoL-12">
          <mxGeometry width="100" relative="1" as="geometry">
            <mxPoint x="400" y="740" as="sourcePoint" />
            <mxPoint x="500" y="740" as="targetPoint" />
            <Array as="points" />
          </mxGeometry>
        </mxCell>
        <mxCell id="z-chgZ_pZuk4-kf4tfoL-34" value="" style="edgeStyle=none;orthogonalLoop=1;jettySize=auto;html=1;rounded=0;exitX=0.5;exitY=1;exitDx=0;exitDy=0;entryX=0.5;entryY=0;entryDx=0;entryDy=0;" edge="1" parent="WIyWlLk6GJQsqaUBKTNV-1" source="z-chgZ_pZuk4-kf4tfoL-12" target="z-chgZ_pZuk4-kf4tfoL-13">
          <mxGeometry width="100" relative="1" as="geometry">
            <mxPoint x="400" y="840" as="sourcePoint" />
            <mxPoint x="500" y="840" as="targetPoint" />
            <Array as="points" />
          </mxGeometry>
        </mxCell>
        <mxCell id="z-chgZ_pZuk4-kf4tfoL-40" value="" style="edgeStyle=orthogonalEdgeStyle;rounded=0;orthogonalLoop=1;jettySize=auto;html=1;" edge="1" parent="WIyWlLk6GJQsqaUBKTNV-1" source="z-chgZ_pZuk4-kf4tfoL-35" target="z-chgZ_pZuk4-kf4tfoL-39">
          <mxGeometry relative="1" as="geometry" />
        </mxCell>
        <mxCell id="z-chgZ_pZuk4-kf4tfoL-35" value="fines&lt;div&gt;and&amp;nbsp;&lt;/div&gt;&lt;div&gt;rewards&lt;/div&gt;" style="shape=parallelogram;perimeter=parallelogramPerimeter;whiteSpace=wrap;html=1;fixedSize=1;" vertex="1" parent="WIyWlLk6GJQsqaUBKTNV-1">
          <mxGeometry x="620" y="700" width="110" height="40" as="geometry" />
        </mxCell>
        <mxCell id="z-chgZ_pZuk4-kf4tfoL-39" value="push&amp;nbsp;&lt;div&gt;notifications&lt;/div&gt;" style="shape=parallelogram;perimeter=parallelogramPerimeter;whiteSpace=wrap;html=1;fixedSize=1;" vertex="1" parent="WIyWlLk6GJQsqaUBKTNV-1">
          <mxGeometry x="620" y="800" width="110" height="40" as="geometry" />
        </mxCell>
        <mxCell id="z-chgZ_pZuk4-kf4tfoL-41" value="" style="edgeStyle=none;orthogonalLoop=1;jettySize=auto;html=1;rounded=0;exitX=0.5;exitY=1;exitDx=0;exitDy=0;entryX=0.5;entryY=0;entryDx=0;entryDy=0;" edge="1" parent="WIyWlLk6GJQsqaUBKTNV-1" source="z-chgZ_pZuk4-kf4tfoL-39" target="z-chgZ_pZuk4-kf4tfoL-17">
          <mxGeometry width="100" relative="1" as="geometry">
            <mxPoint x="630" y="870" as="sourcePoint" />
            <mxPoint x="730" y="870" as="targetPoint" />
            <Array as="points" />
          </mxGeometry>
        </mxCell>
      </root>
    </mxGraphModel>
  </diagram>
</mxfile>
